<?xml version="1.0" encoding="UTF-8"?><svg id="Layer_1" xmlns="http://www.w3.org/2000/svg" viewBox="0 0 435.7 499"><defs><style>.cls-1{fill:#e0ccb6;stroke-width:0px;}</style></defs><path class="cls-1" d="M180.7,33.7c-53.6,1.1-109.8,16.3-161.5,39.1C10.3,68,5.5,39,2.8,27,51.2-.7,123.8-.4,173.9,2l6.8,31.7Z"/><path class="cls-1" d="M231.8,2.9c51.2-6.6,134.9-3.1,182.5,24.1-2.7,12-7.5,41-16.4,45.8-48.6-21-89.4-26.2-140-24.1-4.5.2-8.6,2.6-11,6.3-15.8,24.4-48.2,57.6-48.2,137s21.7,95.4,40.8,95.4c37.1,0,37.7-23,95.8-23,85.3,0,100.5,81.9,100.5,113.9,0,56.7-35.4,79.4-102.8,103.1-2.6.9-5.3-1-5.3-3.7v-60.3c0-1.5,1.1-2.8,2.6-3,40-6.2,56.6-11.7,56.6-35.5,0-39.8-7.7-65.2-49.8-65.2s-55.5,23-107.1,23-82.7-112.2-82.7-158.2c0-89.1,48.9-139.5,80.1-173.2,1.2-1.3,2.9-2.2,4.6-2.4Z"/><path class="cls-1" d="M25.2,383.8c25.8,19,82.3,55.2,153.3,55.2s72.2-1,116.6-18.2v67.9s-12.3,10.3-73.1,10.3S50.6,472,0,410.1l25.2-26.3Z"/></svg>