<?xml version="1.0" encoding="UTF-8"?>
<svg id="Layer_1" data-name="Layer 1" xmlns="http://www.w3.org/2000/svg" viewBox="0 0 435.64 499.01">
  <defs>
    <style>
      .cls-1 {
        fill: #4545ff;
      }
    </style>
  </defs>
  <path class="cls-1" d="M180.67,33.65c-53.62,1.11-109.78,16.28-161.52,39.15C10.27,67.98,5.49,38.99,2.78,27,51.2-.7,123.78-.36,173.86,1.99l6.81,31.66Z"/>
  <path class="cls-1" d="M231.8,2.88c51.18-6.63,134.93-3.1,182.51,24.12-2.71,11.99-7.49,40.98-16.38,45.8-48.56-21.05-89.35-26.21-139.97-24.13-4.49.18-8.6,2.56-11.05,6.33-15.83,24.41-48.25,57.63-48.25,137,0,58.24,21.67,95.41,40.75,95.41,37.14,0,37.68-23.01,95.77-23.01,85.31,0,100.46,81.94,100.46,113.93,0,56.7-35.37,79.42-102.84,103.09-2.58.91-5.3-1.01-5.3-3.75v-60.27c0-1.51,1.1-2.79,2.59-3.02,40.04-6.2,56.56-11.71,56.56-35.49,0-39.85-7.7-65.17-49.8-65.17-54.72,0-55.46,23.01-107.09,23.01-66.62,0-82.72-112.18-82.72-158.2,0-89.1,48.94-139.53,80.1-173.24,1.22-1.32,2.86-2.19,4.65-2.42h0Z"/>
  <path class="cls-1" d="M25.2,383.83c25.84,18.95,82.28,55.19,153.35,55.19,43.46,0,72.17-1.02,116.6-18.17v67.85s-12.3,10.31-73.14,10.31c-74.16,0-171.46-27.06-222.01-88.91l25.21-26.28h-.01Z"/>
</svg>